<svg width="1472" height="603" viewBox="0 0 1472 603" fill="none" xmlns="http://www.w3.org/2000/svg">
<path d="M0 2.21561C0 3.41561 2.80001 4.2156 9.46701 4.7496C33.333 6.7496 45.467 20.6156 49.867 51.0156C53.067 73.8156 53.2 79.8156 53.333 201.95V319.016H89.333H125.333L125.6 285.95C125.733 267.816 125.733 218.75 125.467 177.016C125.067 92.7496 126.4 56.3496 130.667 39.6826C134.933 23.1496 141.867 13.4156 152.667 9.01559C158.267 6.61559 162.667 3.4156 162.667 1.4156C162.667 0.882604 126.133 0.349609 81.333 0.349609C13.733 0.349609 0 0.615607 0 2.21561Z" fill="white"/>
<path d="M238.667 1.1495C238.667 3.8155 241.067 5.28251 249.2 7.54951C292.8 19.4155 323.734 54.4825 334.8 104.616C340.4 130.35 340.667 171.015 335.2 197.682C328.8 228.882 315.2 253.415 294.667 270.482C285.334 278.082 263.067 289.016 252.667 291.016C239.334 293.416 238.667 293.682 238.667 295.549C238.667 297.549 253.734 299.815 257.6 298.349C261.334 296.882 284.267 301.682 295.6 306.349C326.4 318.882 353.467 346.482 366.667 378.615C373.467 395.682 381.067 431.016 377.867 431.016C374.8 430.883 372.934 428.215 372.4 422.482C371.6 415.682 370.134 413.949 367.334 416.349C365.867 417.549 365.467 417.015 365.067 413.415C364.8 410.615 364 409.016 362.667 409.016C361.067 409.016 360.667 411.282 360.667 421.282C360.667 434.615 362.534 437.683 365.334 428.883L366.934 424.216L369.067 428.615C370.934 432.082 372.267 433.149 375.867 433.415L380.4 433.815L379.6 455.415C378.267 494.882 369.867 523.549 352.667 547.682C346 557.015 331.467 571.282 322.267 577.549C311.867 584.615 294.4 592.215 281.467 595.149C271.867 597.415 269.334 598.482 269.334 600.349C269.334 602.882 274.667 602.883 302.667 600.216C331.2 597.55 367.6 586.616 390.267 574.216C408.667 564.083 428.4 546.75 438.4 532.083C465.467 492.35 470.134 430.615 449.467 386.349C432.8 350.749 398.4 322.083 353.867 306.616C338.667 301.283 318.667 296.882 304 295.682C298.534 295.149 293.067 294.482 292 294.082C290.934 293.682 299.6 290.215 311.334 286.482C346 275.149 366.667 263.15 385.467 243.283C398.534 229.55 406.667 216.082 412.8 197.949C417.467 184.215 421.334 161.816 421.334 148.616C421.334 131.15 416.534 107.816 409.334 90.6155C387.867 38.8825 328.534 3.8155 257.734 0.749504C246.8 0.349504 238.667 0.482498 238.667 1.1495Z" fill="white"/>
<path d="M530.267 5.28268C526.667 13.6827 488.8 110.216 480.933 131.016C476.933 141.683 467.2 166.883 459.333 187.016C451.6 207.15 441.067 234.483 436 247.683C431.067 260.883 426.267 273.283 425.467 275.283C424.4 278.216 424.4 279.016 425.733 279.016C426.8 279.016 430.8 270.35 435.333 258.616C439.6 247.55 450.8 218.216 460.267 193.683C469.733 169.15 482 137.016 487.6 122.35C493.2 107.683 498.133 95.2827 498.667 94.6157C499.067 94.0827 501.467 98.8827 504 105.283C518.267 143.15 539.2 197.95 560 252.35C573.067 286.483 588.8 327.816 595.067 344.35L606.4 374.35L645.2 374.75L684 375.016L681.2 368.083C678.4 361.15 662.8 320.883 646 277.683C641.333 265.55 620.933 212.483 600.667 159.683C533.733 -15.1173 540 0.349677 535.867 0.349677C533.067 0.349677 532 1.41568 530.267 5.28268Z" fill="white"/>
<path d="M653.6 1.9496C654 3.0156 657.866 4.0826 663.6 4.4826C687.2 6.6156 699.2 19.1496 704.8 47.0156C706.8 57.1496 707.2 72.6156 707.6 188.616L708.133 319.016H744.666H781.2L781.733 187.95C782.266 61.9496 782.266 56.6156 784.933 45.0156C786.4 38.3496 789.2 29.8156 791.066 26.0826C795.066 18.3496 805.066 8.8826 810.666 7.6826C812.8 7.2826 815.466 5.41561 816.533 3.54961L818.666 0.349609H735.866C670.266 0.349609 653.2 0.7496 653.6 1.9496Z" fill="white"/>
<path d="M889.337 0.882619C889.337 3.54962 892.397 7.01561 894.667 7.01561C900.137 7.01561 918.537 13.9496 928.397 19.6826C953.337 34.3496 973.467 61.2826 982.537 91.9496C988.397 112.083 989.867 123.95 989.867 151.683C989.867 195.95 982.797 223.95 965.337 249.683C950.937 270.75 922.667 289.283 900.797 291.816C893.067 292.75 887.867 295.283 889.737 297.283C890.397 297.816 898.137 298.483 907.067 298.616C926.797 298.75 939.197 301.816 956.937 310.35C977.737 320.483 995.197 336.483 1008.4 357.283L1013.6 365.683H1051.47C1076.67 365.683 1089.34 365.283 1089.34 364.35C1089.34 361.683 1066.67 339.416 1056.27 331.95C1041.2 321.15 1023.2 311.95 1004.54 305.816C987.867 300.216 961.867 295.016 950.667 295.016C947.067 295.016 943.867 294.483 943.467 293.95C943.067 293.283 949.467 290.883 957.737 288.483C1020.67 270.35 1057.6 235.283 1068.94 183.016C1072.67 165.816 1072.27 129.15 1068.27 113.283C1061.87 87.5496 1049.34 65.6826 1031.07 48.2156C1008.14 26.4826 979.197 12.4826 939.997 4.34963C926.137 1.54963 889.337 -0.984381 889.337 0.882619Z" fill="white"/>
<path d="M1181.2 3.9496C1180.4 6.0826 1178.27 11.5496 1176.4 16.3496C1174.67 21.1496 1164.67 46.6156 1154.4 73.0156C1116.94 169.416 1104.54 201.683 1088.67 244.35C1082.54 260.883 1077.07 275.416 1076.67 276.616C1076 278.216 1076.4 279.016 1077.6 279.016C1078.67 279.016 1080.27 276.75 1081.2 273.95C1091.74 244.616 1148.54 95.4156 1149.74 94.0826C1150.14 93.8156 1153.2 101.283 1156.67 110.616C1163.6 129.683 1205.74 241.016 1208.67 248.35C1209.74 250.883 1217.07 270.083 1225.2 291.016C1233.2 311.95 1242.27 335.416 1245.34 343.283L1250.8 357.683H1288.8C1309.6 357.683 1326.67 357.416 1326.67 357.016C1326.67 355.95 1306.54 303.55 1282.4 241.683C1257.47 177.683 1212.27 60.0826 1199.6 26.0826C1190.27 1.1496 1189.87 0.349609 1186.27 0.349609C1183.47 0.349609 1182.27 1.2826 1181.2 3.9496Z" fill="white"/>
<path d="M506 361.15C499.067 364.75 495.2 369.416 489.6 381.416C477.6 406.75 477.333 433.816 488.8 442.883C497.467 449.683 508 443.016 520.8 422.216C522.133 420.083 522.533 421.016 523.333 428.083C524.4 436.75 525.2 438.216 528.267 437.016C529.6 436.483 530 431.95 530.133 417.95C530.267 407.95 530.4 394.216 530.533 387.683C530.933 373.816 529.067 367.95 522.667 362.483C517.867 358.483 512 357.95 506 361.15ZM518.4 366.35C524.267 371.283 526 379.683 524 395.016C522.4 409.15 518.533 419.416 510.8 430.883C504 440.75 498.8 443.95 493.067 441.55C477.067 434.883 482.4 387.95 501.6 368.35C507.733 361.95 512.533 361.416 518.4 366.35Z" fill="white"/>
<path d="M896.137 360.216C893.467 361.95 894.537 425.95 897.337 431.683C899.737 436.483 904.937 437.816 907.597 434.216C910.267 430.483 909.597 429.416 906.137 431.683C901.597 434.75 900.397 432.35 898.537 417.15C897.197 407.016 897.197 399.416 898.537 382.75C899.337 370.883 899.597 360.75 899.067 360.216C898.397 359.55 897.197 359.683 896.137 360.216Z" fill="white"/>
<path d="M1130.4 361.683C1124.14 365.016 1119.87 370.616 1113.87 383.55C1102.8 407.55 1102.67 433.15 1113.47 442.216C1122.8 450.083 1134.4 443.683 1145.74 424.35L1149.34 418.35L1149.47 424.35C1149.6 432.35 1151.07 437.016 1153.2 437.016C1154.54 437.016 1155.07 432.35 1155.6 417.016C1156.94 378.083 1156.8 374.883 1153.6 368.75C1148.67 359.283 1140 356.616 1130.4 361.683ZM1143.34 365.95C1148.4 369.95 1150.67 376.083 1150.67 386.083C1150.67 403.016 1144.67 421.683 1134.94 434.35C1128.94 442.216 1124.67 444.216 1118.67 441.683C1102 434.75 1107.2 389.283 1127.07 368.616C1133.34 362.216 1137.6 361.416 1143.34 365.95Z" fill="white"/>
<path d="M1231.87 362.615C1231.07 364.615 1230.14 375.015 1229.87 385.682C1228.8 415.149 1229.6 413.149 1218.94 414.215C1201.34 415.949 1203.34 417.015 1203.74 406.349C1204 401.149 1204.54 395.949 1204.8 394.615C1205.34 393.015 1204.8 392.349 1202.8 392.349C1200.14 392.349 1200 393.149 1200 403.682C1200 414.882 1199.2 416.882 1196.14 413.149C1194.8 411.549 1193.47 411.682 1187.34 413.815C1178.14 417.015 1171.2 417.015 1165.07 413.815C1162.54 412.349 1159.87 411.55 1159.47 411.95C1158.14 413.283 1158.54 418.749 1160 419.682C1160.8 420.082 1161.34 423.149 1161.34 426.349C1161.34 435.815 1164.8 435.682 1165.87 426.215C1166.14 424.082 1166.4 421.949 1166.54 421.282C1166.54 420.749 1168.27 420.349 1170.14 420.349C1172 420.349 1177.47 419.283 1182.14 418.083C1192.67 415.283 1194.27 415.949 1198.27 425.815C1202.14 435.415 1205.47 436.349 1203.87 427.415C1203.2 423.949 1202.94 420.349 1203.2 419.549C1203.47 418.749 1207.87 417.682 1212.94 417.149C1217.87 416.615 1223.34 415.949 1225.07 415.415C1227.87 414.749 1228 415.015 1228 423.415C1228 428.215 1227.6 432.349 1227.07 432.615C1225.47 433.282 1226.67 477.949 1228.27 477.415C1228.94 477.149 1229.6 470.215 1229.6 461.015C1229.74 439.015 1230.4 433.949 1233.34 433.015C1234.67 432.615 1239.34 429.949 1243.87 427.015L1252 421.682V426.349C1252 429.549 1252.8 431.282 1254.67 432.349C1256.94 433.549 1258 433.149 1261.34 429.815C1263.74 427.549 1265.34 424.482 1265.34 422.482C1265.34 418.749 1268.54 416.349 1273.6 416.349C1275.34 416.215 1278 415.549 1279.6 414.615C1282 413.282 1280.54 413.015 1270 413.015H1257.47L1251.74 418.215C1248.54 421.015 1242.67 425.015 1238.67 427.149L1231.34 431.015L1230.94 426.749C1229.87 417.149 1233.47 373.282 1235.47 368.882C1236.67 366.482 1237.34 363.415 1237.07 362.215C1236.4 358.349 1233.47 358.615 1231.87 362.615ZM1261.07 421.95C1261.34 423.683 1260.54 425.949 1259.47 426.882C1257.74 428.349 1257.34 428.082 1256.54 425.149C1255.47 420.882 1256.8 417.283 1259.07 417.95C1259.87 418.35 1260.8 420.083 1261.07 421.95Z" fill="white"/>
<path d="M148.267 394.75C148.667 425.016 148.933 429.55 151.067 432.75C153.733 436.883 157.333 437.416 160.4 433.95C162.933 431.15 163.467 428.35 161.067 430.75C158.267 433.55 154.667 432.616 153.067 428.616C150.933 423.416 150 381.95 151.867 372.483C153.467 364.083 152.8 360.35 149.733 360.35C148.133 360.35 147.867 365.15 148.267 394.75Z" fill="white"/>
<path d="M1266.67 361.283C1261.6 362.216 1257.34 366.883 1257.34 371.283C1257.34 373.95 1259.07 377.016 1263.2 381.416C1273.6 392.483 1289.74 400.616 1314 407.016L1327.34 410.483V417.816C1327.34 422.75 1326.4 426.483 1324.8 428.883C1322.54 432.35 1322.27 432.483 1320.27 430.483C1317.87 428.083 1317.6 418.483 1319.87 415.816C1321.74 413.683 1320.54 412.483 1317.34 413.283C1313.74 414.216 1311.47 420.616 1312.67 426.616C1313.87 433.416 1315.47 435.016 1320.67 435.016C1327.2 435.016 1331.6 429.15 1332.8 419.016L1333.74 411.016L1341.87 410.883L1350 410.75L1341.47 409.15L1332.94 407.683L1330.54 399.416C1329.07 394.883 1326 388.616 1323.6 385.416C1317.74 377.816 1301.47 366.216 1292.94 363.683C1285.34 361.416 1272 360.216 1266.67 361.283ZM1285.74 365.016C1296.54 367.816 1303.34 371.683 1311.6 379.416C1318.4 385.816 1324.14 395.416 1326 403.55L1326.8 407.283L1320.54 406.35C1299.34 403.15 1266.67 385.016 1262.54 373.95C1258.8 364.35 1268.67 360.616 1285.74 365.016Z" fill="white"/>
<path d="M28.933 363.816C28.4 364.35 28 366.35 28 368.35C28 370.35 26.8 373.016 25.333 374.35C22.266 377.15 22.933 379.016 26.933 379.016C29.733 379.016 29.733 379.283 29.066 405.016C28.266 431.283 28.8 434.75 32.933 430.616C34.4 429.283 34.533 427.95 33.733 426.216C32.933 424.75 32.666 412.75 33.066 398.083L33.6 372.35L39.2 370.75C47.466 368.35 55.466 368.616 58.266 371.283C60.4 373.55 60.4 373.95 58.266 378.35C57.066 380.883 53.066 385.15 49.333 387.816C41.066 393.816 41.733 395.416 50.533 390.616C70.666 379.55 94.8 396.483 91.2 419.016C89.066 432.083 75.6 445.95 63.2 447.816C55.866 448.883 46.266 445.55 43.2 440.883C41.066 437.683 41.066 428.883 43.2 423.95C43.866 422.75 43.733 421.683 43.066 421.683C39.333 421.683 36.266 437.816 38.933 443.016C41.2 447.283 52.266 451.416 59.333 450.616C66.933 449.816 79.333 443.416 84.666 437.55C98.266 422.483 99.466 404.216 87.6 392.616C80.8 385.95 74.133 383.016 66 383.016C62.666 383.016 60 382.75 60 382.483C60 382.083 61.333 379.683 62.8 377.016C69.733 365.283 57.2 359.816 38.666 366.35C33.866 368.083 33.466 367.95 31.733 365.55C30.8 363.95 29.6 363.283 28.933 363.816Z" fill="white"/>
<path d="M775.333 364.483C774.8 365.15 774.8 366.75 775.2 368.083C775.733 369.55 774.933 371.816 773.333 373.683C770.667 376.75 769.733 379.816 771.733 378.483C772.267 378.216 773.6 378.35 774.667 379.016C776.133 379.95 776.533 385.15 776.267 406.35C776.133 430.083 776.267 432.483 778.267 432.083C780.267 431.683 780.4 428.75 780.133 402.616L779.733 373.683L784.933 371.55C789.867 369.416 802.533 368.616 805.333 370.35C809.733 373.15 804.667 382.083 794.667 389.016C787.6 393.95 790 395.016 797.733 390.483C804.667 386.35 815.067 385.816 822.133 389.15C828.267 392.083 835.467 400.483 837.197 406.616C839.597 415.016 838.937 420.75 834.667 429.283C826.797 445.016 810.4 452.083 796.533 445.816C788.533 442.216 786.267 435.016 790 425.283C790.533 424.083 790.4 423.016 789.6 423.016C787.733 423.016 785.333 430.483 785.333 436.616C785.333 443.15 789.467 447.55 797.467 449.683C808.133 452.616 821.733 448.083 831.337 438.35C839.467 430.216 841.997 424.083 841.997 412.216C841.997 403.416 841.467 401.416 838.267 396.616C833.197 388.75 822.667 383.016 813.733 383.016H806.667L809.333 378.616C812.8 373.15 812.667 369.416 809.2 366.216C805.733 363.15 795.6 363.15 786.8 366.216C779.733 368.75 780 368.75 780 366.483C780 364.216 776.4 362.616 775.333 364.483Z" fill="white"/>
<path d="M911.467 405.683C911.597 447.016 912.797 458.216 915.067 440.616C916.137 432.75 916.397 432.35 919.067 433.283C921.867 434.35 931.337 434.35 950.937 433.416C957.337 433.15 960.797 432.216 963.597 430.216L967.467 427.283L971.067 430.483C975.997 434.75 982.937 434.616 991.867 430.216C995.597 428.216 998.537 426.483 998.137 426.083C997.867 425.816 995.197 426.75 992.137 428.216C984.797 432.083 979.337 431.816 975.067 427.55C972.137 424.616 971.867 423.416 972.537 418.75C973.197 414.75 972.937 413.55 971.737 414.083C970.797 414.35 968.937 413.683 967.597 412.616C962.797 408.35 953.067 416.216 951.067 426.083C950.667 428.083 949.867 429.95 949.337 430.35C947.597 431.416 928.797 431.55 925.737 430.483C922.137 429.283 921.867 427.416 924.797 424.216C926.267 422.616 926.667 420.616 926.137 418.35C925.067 414.216 921.867 412.75 918.537 414.883C916.137 416.35 915.997 415.416 915.997 392.75C915.997 368.216 915.467 363.016 912.797 363.016C911.737 363.016 911.337 374.75 911.467 405.683ZM920.267 423.283C917.067 426.483 916.267 424.75 918.797 420.083C919.867 418.083 920.667 417.816 921.737 418.883C922.797 419.95 922.397 421.15 920.267 423.283ZM965.067 421.016C965.337 422.616 963.997 425.15 962.137 426.883C959.067 429.683 958.667 429.816 957.867 427.816C956.667 424.616 959.997 417.416 962.537 417.95C963.737 418.216 964.797 419.55 965.067 421.016Z" fill="white"/>
<path d="M575.6 391.816C575.066 392.35 574.666 397.816 574.666 404.083C574.666 414.216 574.4 415.15 572.4 414.216C569.333 412.883 565.6 413.15 554.666 415.016C545.866 416.616 542.666 415.95 536.933 412.083C535.066 410.616 534.4 410.75 533.333 412.35C532.666 413.416 532.4 415.283 532.933 416.35C533.333 417.416 534 421.016 534.266 424.35C535.066 433.15 535.6 434.35 538 432.35C539.2 431.416 540 428.483 540 425.55C540 421.016 540.4 420.35 543.066 420.35C544.666 420.35 550.266 419.416 555.6 418.35C560.8 417.283 566 416.75 567.066 417.15C569.066 417.816 570.8 420.75 574 428.616C575.066 431.416 576.4 433.683 577.066 433.683C577.6 433.55 577.866 430.083 577.733 425.816L577.333 418.083L584.4 417.283C588.133 416.75 593.6 416.083 596.4 415.55L601.333 414.616L600.533 418.883C599.333 424.483 602.133 430.616 606.533 432.083C610.8 433.55 618.266 431.416 624.133 427.15C628.533 423.95 631.733 423.683 635.2 426.35C638.533 428.883 637.066 430.35 631.2 430.35C626 430.35 625.066 432.616 629.6 433.95C635.066 435.416 648.533 435.016 655.333 433.15L662 431.283L651.6 431.15C644.133 431.016 641.333 430.616 641.466 429.283C642 425.416 641.066 424.216 636.666 422.083C632.4 420.083 632.133 419.683 634.133 417.55C637.6 413.683 635.733 412.083 631.066 415.016C628 416.75 626.666 418.616 626.666 420.883C626.666 423.416 625.333 424.75 620.933 426.883C617.733 428.483 614.133 429.683 612.933 429.683C609.066 429.683 605.333 424.75 605.333 419.683C605.333 415.55 604.933 415.016 600.533 414.216C598 413.816 592.4 414.083 588.4 414.883C575.6 417.416 576.666 419.683 579.066 394.483C579.333 391.816 577.2 390.216 575.6 391.816Z" fill="white"/>
<path d="M288.266 398.616C288.933 402.083 293.333 402.483 293.333 399.15C293.333 397.15 292.533 396.35 290.533 396.35C288.666 396.35 288 397.016 288.266 398.616Z" fill="white"/>
<path d="M605.6 398.616C606.267 402.083 610.667 402.483 610.667 399.15C610.667 397.15 609.867 396.35 607.867 396.35C606 396.35 605.334 397.016 605.6 398.616Z" fill="white"/>
<path d="M713.2 408.615C713.066 408.749 712.933 414.749 712.8 421.815C712.666 431.149 712.933 434.615 714.133 434.082C714.933 433.815 716.266 431.549 716.933 429.282L718.266 425.015L719.733 428.749C722.666 435.815 729.066 435.149 738.133 426.749C741.333 423.815 743.733 421.015 743.333 420.615C743.066 420.215 740 422.482 736.666 425.549C728.133 433.415 725.066 432.749 723.333 422.082C722.4 416.215 720.8 413.949 719.333 416.349C717.6 419.149 715.866 417.549 716.266 413.415C716.533 411.015 716 409.015 715.066 408.749C714.133 408.349 713.2 408.349 713.2 408.615Z" fill="white"/>
<path d="M1002.54 409.283C1002.4 409.95 1002.27 415.55 1002.14 421.95C1002 434.483 1003.47 436.883 1006.54 429.283L1008.27 425.016L1009.6 428.75C1012.14 435.95 1020.27 434.483 1029.2 425.15C1035.47 418.75 1033.2 419.016 1025.74 425.683C1022.4 428.616 1018.94 431.016 1018.14 431.016C1015.47 431.016 1013.34 427.95 1013.34 423.95C1013.34 421.95 1012.67 419.016 1011.87 417.55C1010.54 414.883 1010.4 414.883 1007.87 417.15C1005.47 419.416 1005.34 419.283 1005.34 413.95C1005.34 410.883 1004.8 408.35 1004 408.35C1003.34 408.35 1002.54 408.75 1002.54 409.283Z" fill="white"/>
<path d="M201.334 414.75C199.334 416.883 196.8 421.15 195.867 424.35C194.267 429.416 194.4 430.216 196.534 431.683C199.2 433.683 203.334 432.883 208.4 429.416C210.4 427.95 212 427.283 212 427.95C212 430.083 219.734 433.683 224.267 433.683C226.667 433.55 232 431.816 236 429.683C244.4 425.283 244.4 424.483 235.867 428.35C224 433.683 216.667 430.35 216.667 419.683C216.667 414.616 216.267 413.683 214.4 414.083C213.2 414.483 211.867 413.95 211.467 412.883C210.267 409.816 205.334 410.75 201.334 414.75ZM209.067 421.283C209.334 423.016 208.4 424.883 206.4 426.216C202.4 429.016 201.334 428.883 201.334 425.55C201.334 418.616 208.134 414.75 209.067 421.283Z" fill="white"/>
<path d="M244.4 413.149C244 414.215 244.266 416.615 245.2 418.482C246 420.349 246.666 424.215 246.666 427.015C246.666 430.749 247.2 432.349 248.533 432.349C250.933 432.349 252.4 428.216 251.333 424.083C250.533 421.016 250.933 420.882 260.933 419.149C272 417.282 281.333 414.082 281.333 412.215C281.333 411.682 278.8 412.082 275.733 413.149C267.333 416.082 254.8 416.215 250.666 413.282C246.666 410.482 245.466 410.482 244.4 413.149Z" fill="white"/>
<path d="M316.133 414.883C314.133 417.016 311.733 421.283 310.666 424.35C308.933 429.55 308.933 430.083 311.333 431.816C314.133 433.95 317.733 433.283 322.8 429.683C326.133 427.283 326.4 427.283 328.933 429.95C333.466 434.483 341.333 434.616 349.866 430.216C354 428.216 357.333 426.083 357.333 425.55C357.333 425.15 354.533 426.083 351.066 427.816C341.2 432.883 334.8 431.683 332.266 424.616C331.6 422.483 331.333 419.15 331.733 417.016C332.266 413.95 332 413.416 330.266 414.083C329.2 414.483 327.466 413.95 326.666 412.883C324.133 409.95 320 410.616 316.133 414.883ZM323.866 419.55C324.933 420.883 324.666 422.083 322.533 424.883C318.8 429.683 315.466 429.55 316.666 424.75C318.266 418.216 321.066 416.216 323.866 419.55Z" fill="white"/>
<path d="M671.2 413.416C668 415.95 664.8 421.683 663.467 427.283C662 433.816 670.8 435.15 677.2 429.283C679.467 427.15 680.533 426.883 680.933 428.083C681.867 430.483 688.533 433.683 692.933 433.683C695.067 433.683 699.067 432.483 702 430.883C709.333 427.016 711.333 424.75 704.4 428.216C696.933 431.95 691.867 431.816 688 427.683C685.467 425.016 685.067 423.416 685.733 418.883C686.4 414.083 686.133 413.55 684 414.083C682.533 414.483 680.8 413.95 679.867 412.883C677.867 410.35 674.667 410.616 671.2 413.416ZM678.267 419.816C679.2 422.483 672.667 429.55 670.8 427.683C668.933 425.816 672.667 417.683 675.333 417.683C676.533 417.683 677.733 418.616 678.267 419.816Z" fill="white"/>
<path d="M853.467 414.483C849.197 418.083 845.737 426.616 847.067 430.216C848.267 433.416 855.867 432.883 859.597 429.416L862.667 426.616L865.867 429.55C870.937 434.35 877.467 434.616 885.997 430.35C890.137 428.35 893.197 426.483 892.937 426.083C892.537 425.816 890.537 426.35 888.397 427.416C875.867 433.683 865.737 428.35 868.537 417.016C869.197 414.35 868.937 413.683 866.797 413.683C865.337 413.683 863.737 413.016 863.337 412.35C861.867 409.95 857.597 410.883 853.467 414.483ZM860.797 419.683C861.867 422.216 857.867 428.35 855.337 428.35C852.937 428.35 852.797 425.683 854.937 421.016C856.537 417.283 859.737 416.616 860.797 419.683Z" fill="white"/>
<path d="M1309.34 412.483C1307.47 413.283 1302.27 413.55 1297.34 413.016C1289.2 412.35 1288.27 412.483 1285.6 415.416C1283.07 418.083 1282.54 419.95 1282.94 425.15C1283.34 430.883 1283.74 431.683 1286.4 432.083C1290.54 432.75 1294.27 429.15 1296.27 422.883C1297.47 418.75 1298.54 417.683 1301.87 417.016C1307.87 415.816 1313.34 413.55 1313.34 412.216C1313.34 411.55 1313.2 411.016 1313.07 411.15C1312.8 411.15 1311.2 411.816 1309.34 412.483ZM1292 422.216C1292 423.95 1291.07 426.083 1290 427.016C1288.4 428.35 1288 427.95 1287.2 425.15C1286.4 421.55 1288.67 417.15 1290.8 418.483C1291.47 418.883 1292 420.616 1292 422.216Z" fill="white"/>
<path d="M170.8 418.483C167.467 422.75 167.333 424.75 170 427.016C171.6 428.35 172.8 428.35 176 427.016C178.267 426.083 180.267 425.55 180.533 425.816C183.067 428.75 193.867 449.416 196 455.283C203.867 477.816 193.2 498.883 173.6 499.283C161.2 499.55 152.667 491.016 152.8 478.35C152.933 466.75 161.333 455.283 175.067 448.083C181.6 444.75 180.533 443.283 173.867 446.483C166 450.216 153.867 462.35 151.2 469.016C144.933 485.683 154.8 503.016 170.533 503.016C185.6 502.883 200.4 490.216 203.2 474.75C204.667 466.616 200.533 452.616 190.933 433.55C182.533 416.75 181.733 415.683 177.867 415.283C174.533 415.016 172.933 415.683 170.8 418.483ZM177.333 420.216C177.333 420.883 176.4 422.083 175.333 423.016C173.733 424.35 173.333 424.35 173.333 422.75C173.333 421.683 173.733 420.35 174.267 419.95C175.467 418.616 177.333 418.75 177.333 420.216Z" fill="white"/>
<path d="M284 417.016C282 419.55 283.2 426.483 286.267 429.95C288.934 433.016 296 433.016 302.134 430.216C307.734 427.55 309.6 425.15 304.534 427.016C294.267 431.016 288 428.083 288 419.416C288 414.616 286.667 413.816 284 417.016Z" fill="white"/>
<path d="M98 421.416C97.6 423.55 97.867 426.883 98.534 428.75C100.267 433.283 106.4 433.683 111.734 429.683L115.334 427.016L120.934 429.683C124 431.15 129.2 432.35 132.534 432.35C138.667 432.35 145.334 430.083 145.334 428.083C145.334 427.416 144.134 427.55 142.8 428.35C136.534 431.683 127.2 429.283 121.067 422.75L117.067 418.483L112.8 423.55C107.334 430.216 103.467 429.816 102.934 422.616C102.4 416.75 99.334 415.95 98 421.416Z" fill="white"/>
<path d="M52.933 498.616C52 548.35 50.667 560.216 44.933 572.75C38 587.816 26.4 595.816 9.20001 597.283C2.80001 597.816 0 598.616 0 599.816C0 601.416 14.533 601.683 86.133 601.683C153.867 601.683 172.133 601.283 171.733 600.083C171.333 599.15 169.067 597.816 166.533 597.283C144.133 591.55 133.867 579.95 129.467 555.55C127.067 542.216 125.333 511.683 125.333 481.283V452.35H89.6H53.733L52.933 498.616Z" fill="white"/>
<path d="M637.333 453.816C637.333 454.616 642.666 469.416 649.2 486.75C670.133 542.483 675.733 562.483 674 575.683C672.266 589.55 664.4 595.816 646.666 597.283C640.8 597.816 637.333 598.616 637.333 599.683C637.333 600.883 659.066 601.15 730.666 600.883C815.866 600.616 837.197 599.816 816.533 597.55C804.133 596.083 787.866 587.15 776 575.016C759.733 558.483 751.466 543.283 724.666 479.95L712.933 452.35H675.2C648.533 452.35 637.333 452.75 637.333 453.816Z" fill="white"/>
<path d="M1032.8 466.483C1029.2 522.483 1004.67 563.95 962.667 585.016C950.537 591.15 939.997 594.616 929.597 596.216C924.937 596.883 923.197 597.683 922.937 599.55C922.397 601.95 923.197 602.083 940.797 601.283C1011.2 598.35 1070 569.816 1095.47 526.483C1104.94 510.616 1110.4 493.416 1113.87 469.683C1114.8 462.75 1115.87 456.083 1116.14 455.016C1116.54 453.283 1111.34 453.016 1075.2 452.616L1033.74 452.35L1032.8 466.483Z" fill="white"/>
<path d="M1286.67 453.016C1286.67 453.416 1292.14 468.616 1298.8 486.75C1325.87 559.816 1329.07 578.75 1316.67 590.483C1311.74 595.15 1303.47 597.683 1293.47 597.683C1288.4 597.683 1286.67 598.216 1286.67 599.55C1286.67 601.283 1299.6 601.416 1378.94 601.283C1444.94 601.15 1471.2 600.616 1471.6 599.55C1471.87 598.616 1469.07 597.816 1463.87 597.283C1445.87 595.683 1423.2 579.016 1408.94 557.016C1402.54 546.883 1388.27 519.016 1383.87 507.95C1382.4 504.083 1377.6 493.55 1373.34 484.35C1369.07 475.15 1364.54 464.216 1363.2 459.95L1360.8 452.35H1323.74C1303.34 452.35 1286.67 452.616 1286.67 453.016Z" fill="white"/>
</svg>
